Coordinates
version=1
nRows=24
nColumns=24
inDegrees=yes

Units are S.I. units (second, meters, Newtons, ...)
Angles are in degrees.

endheader
time	pelvis_tilt	pelvis_list	pelvis_rotation	pelvis_tx	pelvis_ty	pelvis_tz	hip_flexion_r	hip_adduction_r	hip_rotation_r	knee_angle_r	ankle_angle_r	subtalar_angle_r	mtp_angle_r	hip_flexion_l	hip_adduction_l	hip_rotation_l	knee_angle_l	ankle_angle_l	subtalar_angle_l	mtp_angle_l	lumbar_extension	lumbar_bending	lumbar_rotation
      6.44000000	      6.87685660	      0.46961193	     -8.38973793	      0.02621934	      0.91286399	      0.12769985	      8.46967609	      1.61245814	      0.20155189	    -65.97531363	      2.57156529	    -11.92684748	      0.00000000	     -0.04002536	      5.12849689	      0.05335887	     -8.90396484	     10.51454844	     -4.12209817	      0.00000000	    -24.83087550	     -3.94038980	      6.03638443
      6.45000000	      6.68178945	      0.24754878	     -7.66206937	      0.03696524	      0.91367267	      0.12702178	      9.84842514	      1.84415081	     -0.78354960	    -65.50732832	      3.86795983	    -11.95324231	      0.00000000	     -0.80179087	      4.95426409	      0.80315435	     -8.52169886	     10.91894601	     -4.08877036	      0.00000000	    -24.78814648	     -3.42947066	      5.21458230
      6.46000000	      6.47869902	      0.08020950	     -7.00878210	      0.04762223	      0.91424008	      0.12647906	     11.20935087	      1.98625109	     -1.68380782	    -64.79440329	      5.16616795	    -11.82304919	      0.00000000	     -1.56523135	      4.82395913	      1.53741972	     -8.08632733	     11.25602635	     -4.18313400	      0.00000000	    -24.74945451	     -3.02435280	      4.47473485
      6.47000000	      6.27419860	     -0.03881150	     -6.43787518	      0.05818589	      0.91457416	      0.12609273	     12.53762104	      2.06127643	     -2.47381910	    -63.84223860	      6.40220968	    -11.59551062	      0.00000000	     -2.33920834	      4.73339410	      2.26613159	     -7.60361342	     11.53111373	     -4.39398620	      0.00000000	    -24.72987343	     -2.72149662	      3.83188375
      6.48000000	      6.07608843	     -0.11442022	     -5.94106609	      0.06866311	      0.91469787	      0.12587423	     13.80997612	      2.09363704	     -3.13520075	    -62.64257586	      7.51525003	    -11.32977120	      0.00000000	     -3.12358222	      4.67581042	      2.97248314	     -7.09479255	     11.76300759	     -4.68014415	      0.00000000	    -24.74253004	     -2.51335705	      3.27606025
      6.49000000	      5.89527613	     -0.15185595	     -5.51485721	      0.07904177	      0.91462372	      0.12582771	     15.00501929	      2.10276959	     -3.65388731	    -61.19326530	      8.50741200	    -11.09730632	      0.00000000	     -3.92956448	      4.65306254	      3.74541193	     -6.56610991	     11.94577540	     -5.21754588	      0.00000000	    -24.80646821	     -2.39531664	      2.79477024
      6.50000000	      5.70766580	     -0.18874869	     -5.10336007	      0.08932895	      0.91440700	      0.12592481	     16.11303187	      2.13381754	     -4.07259812	    -59.44239244	      9.10198903	    -11.16503468	      0.00000000	     -4.64709490	      4.59604620	      4.20695883	     -6.17426976	     12.33796179	     -5.20371471	      0.00000000	    -24.89883659	     -2.30568447	      2.38392771
      6.51000000	      5.59950854	     -0.15640157	     -4.75065649	      0.09956368	      0.91409862	      0.12614303	     17.05955093	      2.08290543	     -4.38809177	    -57.44560623	      9.89736586	    -10.90582368	      0.00000000	     -5.50451117	      4.62307925	      4.97815896	     -5.67243351	     12.37672104	     -5.78486104	      0.00000000	    -25.10029707	     -2.33044263	      1.99973473
      6.52000000	      5.47624836	     -0.14459818	     -4.40097388	      0.10971923	      0.91365961	      0.12650116	     17.89344214	      2.10603010	     -4.55665463	    -55.11411357	     10.15588291	    -11.24967756	      0.00000000	     -6.29844013	      4.60352783	      5.70899407	     -5.25892732	     12.52948490	     -6.29669775	      0.00000000	    -25.31540155	     -2.35121521	      1.63579659
      6.53000000	      5.28202185	     -0.05678576	     -4.07158893	      0.11982855	      0.91298432	      0.12694890	     18.71171551	      2.04613369	     -4.64856439	    -52.53445051	     10.45971281	    -11.42850109	      0.00000000	     -6.90844703	      4.64258789	      6.10948244	     -5.02833300	     12.97015515	     -6.29843368	      0.00000000	    -25.45208325	     -2.46396915	      1.26907297
      6.54000000	      5.20336812	      0.00586568	     -3.74595006	      0.12993468	      0.91239675	      0.12751355	     19.23819154	      2.03436308	     -4.61314012	    -49.59695229	     10.51870159	    -11.83998781	      0.00000000	     -7.66452242	      4.64689653	      6.60812633	     -4.77113747	     13.22279308	     -6.43034384	      0.00000000	    -25.75229827	     -2.57438889	      0.89679250
      6.55000000	      5.05340288	      0.11599775	     -3.40570209	      0.14010049	      0.91159726	      0.12809145	     19.70930158	      1.94361131	     -4.55907005	    -46.38628949	     10.49734585	    -12.18958154	      0.00000000	     -8.32472769	      4.68491539	      7.06861427	     -4.55022151	     13.59035556	     -6.50901812	      0.00000000	    -25.95155292	     -2.71578254	      0.48946592
      6.56000000	      4.98651653	      0.22928426	     -3.12247585	      0.15035549	      0.91083616	      0.12882321	     19.91201067	      1.89517387	     -4.27627854	    -42.83236463	     10.23970060	    -12.74646415	      0.00000000	     -9.12242232	      4.72326001	      7.52533097	     -4.25558147	     13.72493843	     -6.73333398	      0.00000000	    -26.24329543	     -2.88710526	      0.15821141
      6.57000000	      4.87735855	      0.38432823	     -2.81528670	      0.16070540	      0.90992731	      0.12955969	     20.00559449	      1.77943194	     -3.93696139	    -39.00922812	      9.91027315	    -13.06764934	      0.00000000	     -9.86559884	      4.79345563	      8.01565422	     -3.99372283	     13.88825122	     -6.96152477	      0.00000000	    -26.47766908	     -3.08466086	     -0.22785152
      6.58000000	      4.77451909	      0.58535456	     -2.51842738	      0.17121335	      0.90893370	      0.13033781	     19.93673626	      1.60052764	     -3.49795194	    -34.93818562	      9.47287040	    -13.16677622	      0.00000000	    -10.63936405	      4.90414493	      8.42399794	     -3.70136528	     14.02231025	     -7.13790516	      0.00000000	    -26.69618427	     -3.32562070	     -0.64144116
      6.59000000	      4.67722678	      0.84449017	     -2.22392979	      0.18187558	      0.90784944	      0.13114834	     19.72017430	      1.34315720	     -2.95568105	    -30.66672862	      8.94212305	    -12.99694276	      0.00000000	    -11.42989669	      5.06954941	      8.77913683	     -3.40811521	     14.11646576	     -7.28444815	      0.00000000	    -26.90662404	     -3.62321331	     -1.07938707
      6.60000000	      4.56197715	      1.20333741	     -1.87430265	      0.19268841	      0.90663670	      0.13187884	     19.42257039	      0.91780812	     -2.45831203	    -26.29673804	      8.42726862	    -12.36888790	      0.00000000	    -12.17650696	      5.32866272	      9.06285359	     -3.17832272	     14.27419343	     -7.25057726	      0.00000000	    -27.08511923	     -3.98955851	     -1.61959098
      6.61000000	      4.51867413	      1.61252315	     -1.59146717	      0.20370773	      0.90539444	      0.13273661	     18.93685533	      0.46721932	     -1.66965622	    -21.83843841	      7.68781891	    -11.72073803	      0.00000000	    -13.07316306	      5.64196944	      9.34643111	     -2.83766887	     14.18318548	     -7.50172334	      0.00000000	    -27.32505150	     -4.43136220	     -2.12626021
      6.62000000	      4.47285992	      2.11249744	     -1.21371902	      0.21489216	      0.90405662	      0.13344317	     18.42824588	     -0.17625764	     -1.14271032	    -17.48621589	      7.15782881	    -10.43655837	      0.00000000	    -13.92302717	      6.02806855	      9.54839747	     -2.60817693	     14.23204760	     -7.41202614	      0.00000000	    -27.56089371	     -4.91020851	     -2.77309620
      6.63000000	      4.45412045	      2.68738615	     -0.80465149	      0.22624404	      0.90265419	      0.13412724	     17.87155573	     -0.92424693	     -0.62667637	    -13.30698050	      6.67191148	     -8.95365980	      0.00000000	    -14.80007670	      6.47180494	      9.75579854	     -2.41578113	     14.21997158	     -7.28987961	      0.00000000	    -27.82598055	     -5.44345238	     -3.49184255
      6.64000000	      4.45313181	      3.30655727	     -0.34433174	      0.23775499	      0.90119905	      0.13476694	     17.30535177	     -1.74555023	     -0.19577100	     -9.42925952	      6.28659825	     -7.32567958	      0.00000000	    -15.68060103	      6.93067511	     10.01251743	     -2.29292351	     14.19672829	     -7.11398200	      0.00000000	    -28.11462327	     -5.98809274	     -4.31086985
      6.65000000	      4.45649257	      3.93758801	      0.16306199	      0.24939746	      0.89970823	      0.13538466	     16.77339909	     -2.59325669	      0.14338701	     -5.97410984	      6.01563955	     -5.67305897	      0.00000000	    -16.53504209	      7.36468468	     10.33395107	     -2.26874669	     14.17249713	     -6.88162168	      0.00000000	    -28.41620700	     -6.51293423	     -5.20061332
      6.66000000	      4.45870764	      4.55871907	      0.67944385	      0.26112778	      0.89822129	      0.13602790	     16.33729779	     -3.42764353	      0.30749785	     -3.08962429	      5.86609307	     -3.99588389	      0.00000000	    -17.33550511	      7.75975777	     10.67668958	     -2.37310789	     14.14041485	     -6.59726591	      0.00000000	    -28.72559185	     -7.00849790	     -6.08788951
      6.67000000	      4.34199288	      5.14581019	      1.21866887	      0.27296313	      0.89660043	      0.13670638	     16.08595087	     -4.21206751	      0.71827634	     -0.78022456	      5.66737640	     -3.01803463	      0.00000000	    -17.94007184	      8.09171219	     11.10902512	     -2.63661016	     14.12870269	     -6.29826644	      0.00000000	    -28.88771836	     -7.45464733	     -7.06640179
